<svg width="38" height="38" viewBox="0 0 38 38" fill="none" xmlns="http://www.w3.org/2000/svg">
<path d="M6.96667 30.7562C6.43889 30.9673 5.9375 30.9209 5.4625 30.6169C4.9875 30.3129 4.75 29.8711 4.75 29.2916V23.3937C4.75 23.0243 4.85556 22.6944 5.06667 22.4041C5.27778 22.1139 5.56806 21.9291 5.9375 21.85L17.4167 19L5.9375 16.15C5.56806 16.0708 5.27778 15.8861 5.06667 15.5958C4.85556 15.3055 4.75 14.9757 4.75 14.6062V8.70831C4.75 8.12776 4.9875 7.68548 5.4625 7.38148C5.9375 7.07748 6.43889 7.03156 6.96667 7.24373L31.35 17.5354C32.0097 17.8257 32.3396 18.3139 32.3396 19C32.3396 19.6861 32.0097 20.1743 31.35 20.4646L6.96667 30.7562Z" fill="white"/>
</svg>
